<svg xmlns="http://www.w3.org/2000/svg" viewBox="0 0 120 120" role="img" aria-label="Hazard Hub logo">
  <defs>
    <radialGradient id="glow" cx="50%" cy="50%" r="75%">
      <stop offset="0%" stop-color="#ff9345" stop-opacity="0.95"/>
      <stop offset="55%" stop-color="#ff7a00" stop-opacity="0.75"/>
      <stop offset="100%" stop-color="#1f1305" stop-opacity="0"/>
    </radialGradient>
    <linearGradient id="shieldFill" x1="0%" y1="0%" x2="100%" y2="100%">
      <stop offset="0%" stop-color="#ff9a3d"/>
      <stop offset="100%" stop-color="#ff6a00"/>
    </linearGradient>
  </defs>
  <rect width="120" height="120" fill="url(#glow)" rx="26" ry="26"/>
  <g fill="none" stroke="url(#shieldFill)" stroke-width="4" stroke-linecap="round" stroke-linejoin="round">
    <path fill="url(#shieldFill)" stroke="none" d="M60 96c-16.4-5.7-27-18-27-36V36l27-12 27 12v24c0 18-10.6 30.3-27 36z"/>
  </g>
  <g fill="#fff1e4">
    <circle cx="60" cy="56" r="11" fill="#ff7a00"/>
    <circle cx="60" cy="56" r="5" fill="#ffe7d0"/>
    <circle cx="60" cy="32" r="4" fill="#ffe7d0"/>
    <circle cx="60" cy="80" r="4" fill="#ffe7d0"/>
    <circle cx="84" cy="56" r="4" fill="#ffe7d0"/>
    <circle cx="36" cy="56" r="4" fill="#ffe7d0"/>
    <path d="M60 37v14" stroke="#ffe7d0" stroke-width="3" stroke-linecap="round"/>
    <path d="M60 61v14" stroke="#ffe7d0" stroke-width="3" stroke-linecap="round"/>
    <path d="M41 56h14" stroke="#ffe7d0" stroke-width="3" stroke-linecap="round"/>
    <path d="M65 56h14" stroke="#ffe7d0" stroke-width="3" stroke-linecap="round"/>
  </g>
</svg>
