<svg xmlns="http://www.w3.org/2000/svg" viewBox="0 0 512 512" role="img" aria-label="Hazard Hub icon">
  <defs>
    <radialGradient id="bg" cx="50%" cy="50%" r="60%">
      <stop offset="0%" stop-color="#ff9130" stop-opacity="0.95" />
      <stop offset="40%" stop-color="#ff7a1f" stop-opacity="0.85" />
      <stop offset="100%" stop-color="#1f140a" stop-opacity="1" />
    </radialGradient>
    <linearGradient id="shield" x1="0%" y1="0%" x2="0%" y2="100%">
      <stop offset="0%" stop-color="#ffb347" />
      <stop offset="100%" stop-color="#ff7518" />
    </linearGradient>
  </defs>
  <rect width="512" height="512" fill="url(#bg)" />
  <g transform="translate(98 70) scale(0.73)" fill="none" stroke-linecap="round" stroke-linejoin="round">
    <path d="M256 16c-35.3 28.6-94.8 44-160 44-10.7 0-21.3-0.4-32-1.1v170.5c0 121.1 78 216.2 192 266.6 114-50.4 192-145.5 192-266.6V58.9c-10.7 0.7-21.3 1.1-32 1.1-65.2 0-124.7-15.4-160-44z" fill="url(#shield)" stroke="#ff861f" stroke-width="20" />
    <circle cx="256" cy="256" r="64" fill="#ff7f22" stroke="#ffb347" stroke-width="16" />
    <g stroke="#ffb347" stroke-width="18">
      <path d="M256 192V112" />
      <path d="M256 320v80" />
      <path d="M320 256h80" />
      <path d="M192 256h-80" />
      <path d="M305 207l56-56" />
      <path d="M207 305l-56 56" />
      <path d="M305 305l56 56" />
      <path d="M207 207l-56-56" />
    </g>
    <g fill="#ffb347" stroke="#ff861f" stroke-width="12">
      <circle cx="256" cy="104" r="24" />
      <circle cx="256" cy="408" r="24" />
      <circle cx="104" cy="256" r="24" />
      <circle cx="408" cy="256" r="24" />
      <circle cx="182" cy="182" r="22" />
      <circle cx="330" cy="182" r="22" />
      <circle cx="182" cy="330" r="22" />
      <circle cx="330" cy="330" r="22" />
      <circle cx="256" cy="256" r="32" />
    </g>
  </g>
</svg>
